<mxfile host="app.diagrams.net" modified="2021-11-21T05:29:27.649Z" agent="5.0 (Windows NT 10.0; Win64; x64) AppleWebKit/537.36 (KHTML, like Gecko) Chrome/96.0.4664.45 Safari/537.36" etag="IYxDSi2y2UOSuv7ovqwM" version="15.8.3" type="github">
  <diagram id="ixnTP7PrsZ1tJvnLcnKI" name="Page-1">
    <mxGraphModel dx="1422" dy="761" grid="1" gridSize="10" guides="1" tooltips="1" connect="1" arrows="1" fold="1" page="1" pageScale="1" pageWidth="827" pageHeight="1169" math="0" shadow="0">
      <root>
        <mxCell id="0" />
        <mxCell id="1" parent="0" />
        <mxCell id="mIng1DJrsQZJDd-Cd1Et-1" value="version&lt;br&gt;（版本）" style="rounded=0;whiteSpace=wrap;html=1;" parent="1" vertex="1">
          <mxGeometry x="120" y="80" width="120" height="60" as="geometry" />
        </mxCell>
        <mxCell id="mIng1DJrsQZJDd-Cd1Et-2" value="区分服务&lt;br&gt;（DSCP、ECN）" style="rounded=0;whiteSpace=wrap;html=1;" parent="1" vertex="1">
          <mxGeometry x="240" y="80" width="120" height="60" as="geometry" />
        </mxCell>
        <mxCell id="mIng1DJrsQZJDd-Cd1Et-3" value="Total Length&lt;br&gt;（总长度）" style="rounded=0;whiteSpace=wrap;html=1;" parent="1" vertex="1">
          <mxGeometry x="360" y="80" width="240" height="60" as="geometry" />
        </mxCell>
        <mxCell id="mIng1DJrsQZJDd-Cd1Et-4" value="Identification&lt;br&gt;（标识、分片重组）" style="rounded=0;whiteSpace=wrap;html=1;dashed=1;dashPattern=1 1;" parent="1" vertex="1">
          <mxGeometry x="120" y="140" width="240" height="60" as="geometry" />
        </mxCell>
        <mxCell id="mIng1DJrsQZJDd-Cd1Et-7" style="edgeStyle=orthogonalEdgeStyle;rounded=0;orthogonalLoop=1;jettySize=auto;html=1;exitX=1;exitY=0.5;exitDx=0;exitDy=0;entryX=0;entryY=0.5;entryDx=0;entryDy=0;" parent="1" source="mIng1DJrsQZJDd-Cd1Et-5" target="mIng1DJrsQZJDd-Cd1Et-6" edge="1">
          <mxGeometry relative="1" as="geometry" />
        </mxCell>
        <mxCell id="mIng1DJrsQZJDd-Cd1Et-5" value="flag（标志位、分片信息）" style="rounded=0;whiteSpace=wrap;html=1;dashed=1;dashPattern=1 1;" parent="1" vertex="1">
          <mxGeometry x="360" y="140" width="50" height="60" as="geometry" />
        </mxCell>
        <mxCell id="mIng1DJrsQZJDd-Cd1Et-6" value="Fragment Offset&lt;br&gt;（片偏移）" style="rounded=0;whiteSpace=wrap;html=1;dashed=1;dashPattern=1 1;" parent="1" vertex="1">
          <mxGeometry x="410" y="140" width="190" height="60" as="geometry" />
        </mxCell>
        <mxCell id="HwlnOimc46ugmF20U-wt-1" value="Time To Live&lt;br&gt;（生存时间）" style="rounded=0;whiteSpace=wrap;html=1;" vertex="1" parent="1">
          <mxGeometry x="120" y="200" width="120" height="60" as="geometry" />
        </mxCell>
        <mxCell id="HwlnOimc46ugmF20U-wt-2" value="Protocol&lt;br&gt;（协议）" style="rounded=0;whiteSpace=wrap;html=1;" vertex="1" parent="1">
          <mxGeometry x="240" y="200" width="120" height="60" as="geometry" />
        </mxCell>
        <mxCell id="HwlnOimc46ugmF20U-wt-3" value="Header Checksum&lt;br&gt;（首部校验和）" style="rounded=0;whiteSpace=wrap;html=1;" vertex="1" parent="1">
          <mxGeometry x="360" y="200" width="240" height="60" as="geometry" />
        </mxCell>
        <mxCell id="HwlnOimc46ugmF20U-wt-4" value="Source Address&lt;br&gt;（源地址）" style="rounded=0;whiteSpace=wrap;html=1;" vertex="1" parent="1">
          <mxGeometry x="120" y="260" width="480" height="60" as="geometry" />
        </mxCell>
        <mxCell id="HwlnOimc46ugmF20U-wt-5" value="Destination Address&lt;br&gt;（目标地址）" style="rounded=0;whiteSpace=wrap;html=1;" vertex="1" parent="1">
          <mxGeometry x="120" y="320" width="480" height="60" as="geometry" />
        </mxCell>
        <mxCell id="HwlnOimc46ugmF20U-wt-6" value="Options&lt;br&gt;可选字段" style="rounded=0;whiteSpace=wrap;html=1;" vertex="1" parent="1">
          <mxGeometry x="120" y="380" width="390" height="60" as="geometry" />
        </mxCell>
        <mxCell id="HwlnOimc46ugmF20U-wt-7" value="Pading&lt;br&gt;填充" style="rounded=0;whiteSpace=wrap;html=1;" vertex="1" parent="1">
          <mxGeometry x="510" y="380" width="90" height="60" as="geometry" />
        </mxCell>
        <mxCell id="HwlnOimc46ugmF20U-wt-8" value="Data&lt;br&gt;数据" style="rounded=0;whiteSpace=wrap;html=1;fillColor=#fff2cc;strokeColor=#d6b656;" vertex="1" parent="1">
          <mxGeometry x="120" y="440" width="480" height="140" as="geometry" />
        </mxCell>
        <mxCell id="HwlnOimc46ugmF20U-wt-10" value="" style="shape=curlyBracket;whiteSpace=wrap;html=1;rounded=1;flipH=1;" vertex="1" parent="1">
          <mxGeometry x="610" y="440" width="20" height="140" as="geometry" />
        </mxCell>
        <mxCell id="HwlnOimc46ugmF20U-wt-11" value="IP负载" style="text;html=1;resizable=0;autosize=1;align=center;verticalAlign=middle;points=[];fillColor=none;strokeColor=none;rounded=0;" vertex="1" parent="1">
          <mxGeometry x="630" y="505" width="50" height="20" as="geometry" />
        </mxCell>
        <mxCell id="HwlnOimc46ugmF20U-wt-12" value="" style="shape=crossbar;whiteSpace=wrap;html=1;rounded=1;direction=south;" vertex="1" parent="1">
          <mxGeometry x="610" y="80" width="20" height="360" as="geometry" />
        </mxCell>
        <mxCell id="HwlnOimc46ugmF20U-wt-13" value="IP首部" style="text;html=1;resizable=0;autosize=1;align=center;verticalAlign=middle;points=[];fillColor=none;strokeColor=none;rounded=0;" vertex="1" parent="1">
          <mxGeometry x="630" y="270" width="50" height="20" as="geometry" />
        </mxCell>
        <mxCell id="HwlnOimc46ugmF20U-wt-14" value="" style="shape=tape;whiteSpace=wrap;html=1;dashed=1;" vertex="1" parent="1">
          <mxGeometry x="100" y="465" width="50" height="40" as="geometry" />
        </mxCell>
        <mxCell id="HwlnOimc46ugmF20U-wt-15" value="" style="shape=tape;whiteSpace=wrap;html=1;dashed=1;" vertex="1" parent="1">
          <mxGeometry x="570" y="475" width="50" height="40" as="geometry" />
        </mxCell>
      </root>
    </mxGraphModel>
  </diagram>
</mxfile>
